<svg xmlns="http://www.w3.org/2000/svg" xmlns:xlink="http://www.w3.org/1999/xlink" fill="none" viewBox="0 0 500 500"><style>:root{--background-top:#121212;--background-middle:#1E1E1E;--background-bottom:#2D2D2D;--bottom-inside:black;--bottom-outside:white;--top-inside:black;--top-outside:white;--top-shadow:var(--top-inside)}</style><defs><linearGradient id="bgGrad" x1="0%" x2="0%" y1="0%" y2="100%"><stop offset="0%" stop-color="var(--background-top)"/><stop offset="40%" stop-color="var(--background-middle)"/><stop offset="100%" stop-color="var(--background-bottom)"/></linearGradient><filter id="featherBottom" width="160%" height="160%" x="-30%" y="-30%"><feGaussianBlur in="SourceAlpha" result="blur" stdDeviation="17.2"/><feOffset dx="-1.7" dy="3.4" in="blur" result="offsetBlur"/><feComposite in="SourceGraphic" in2="offsetBlur" operator="out"/></filter><filter id="featherTop" width="160%" height="160%" x="-30%" y="-30%"><feGaussianBlur in="SourceAlpha" result="blur" stdDeviation="17.2"/><feOffset dx="-1.7" dy="3.4" in="blur" result="offsetBlur"/><feComposite in="SourceGraphic" in2="offsetBlur" operator="out"/></filter><filter id="layerShadow" width="120%" height="120%" x="-10%" y="-10%"><feDropShadow dx="-1.7" dy="5.2" flood-color="var(--top-shadow)" flood-opacity=".25" stdDeviation="8.6"/></filter></defs><rect width="400" height="400" x="50" y="50" fill="url(#bgGrad)" rx="95"/><g><path fill="var(--bottom-inside)" d="M 217,132 A 129,129 0 1,1 152.5,373 C 131,378 100,385 76,380 C 86.3,364.5 98.3,344 105.2,326 A 129,129 0 0,1 217,132 Z"/><path fill="var(--bottom-outside)" d="M 217,132 A 129,129 0 1,1 152.5,373 C 131,378 100,385 76,380 C 86.3,364.5 98.3,344 105.2,326 A 129,129 0 0,1 217,132 Z" filter="url(#featherBottom)"/></g><g filter="url(#layerShadow)"><circle cx="313.2" cy="261" r="129" fill="var(--top-inside)"/><circle cx="313.2" cy="261" r="129" fill="var(--top-outside)" filter="url(#featherTop)"/></g></svg>