<svg xmlns="http://www.w3.org/2000/svg" width="175" height="237" fill="none" viewBox="0 0 175 237"><path fill="#fff" d="M168.646.176C107.411 11.96 51.294 28.372 4.097 51.181a5.723 5.723 0 0 0-3.232 5.05v116.99a31.478 31.478 0 0 0 15.721 27.253l55.175 31.899a31.522 31.522 0 0 0 31.459 0l55.209-31.899a31.476 31.476 0 0 0 15.721-27.253V4.637a4.478 4.478 0 0 0-5.504-4.46"/><path fill="#0068AD" d="M161.966 9.91c-56.193 10.812-107.69 25.873-151 46.804a5.251 5.251 0 0 0-2.965 4.634v107.357a28.89 28.89 0 0 0 14.426 25.008l50.632 29.273a28.937 28.937 0 0 0 28.868 0l50.663-29.273a28.883 28.883 0 0 0 14.426-25.008V14.003a4.108 4.108 0 0 0-5.05-4.094"/><path fill="#fff" d="M161.966 9.91c-25.965 5.004-50.864 10.951-74.465 17.918v198.988a28.782 28.782 0 0 0 14.426-3.83l50.663-29.273a28.883 28.883 0 0 0 14.426-25.008V14.003a4.108 4.108 0 0 0-5.05-4.094" opacity=".07"/><path fill="#020404" d="M132.912 40.71c-39.217 5.067-75.13 14.768-105.357 27.805a3.507 3.507 0 0 0-2.07 3.09v25.95a.617.617 0 0 1 .356-.571c31.417-13.717 69.136-23.835 110.392-28.901h.185V43.8a3.084 3.084 0 0 0-1.047-2.346 3.089 3.089 0 0 0-2.459-.744M93.803 87.175a344.867 344.867 0 0 0-66.325 19.371 3.395 3.395 0 0 0-2.008 3.089v25.951a.543.543 0 0 1 .34-.54 342.286 342.286 0 0 1 67.962-20.081z" opacity=".29"/><path fill="#fff" d="M137.144 32.987C96.398 40.849 59.05 53.068 27.633 68.283a3.815 3.815 0 0 0-2.147 3.322v25.95a.65.65 0 0 1 .37-.587C58.51 80.95 97.742 68.114 140.62 60.144l.201-.093V35.953a3 3 0 0 0-1.114-2.38 3.006 3.006 0 0 0-2.562-.586M98.53 80.193a421.666 421.666 0 0 0-70.96 26.26 3.802 3.802 0 0 0-2.147 3.352v25.936a.631.631 0 0 1 .372-.587 418.566 418.566 0 0 1 72.734-27.11z"/><path fill="#020404" d="M52.3 138.027a243.544 243.544 0 0 0-24.961 6.627 2.975 2.975 0 0 0-1.854 2.935v25.966a.511.511 0 0 1 .31-.51 239.033 239.033 0 0 1 26.505-7.213z" opacity=".29"/><path fill="#fff" d="M56.625 131.709c-10.117 3.877-19.88 8.032-28.992 12.497a3.816 3.816 0 0 0-2.147 3.367v25.982a.648.648 0 0 1 .37-.587c9.685-4.742 19.987-9.191 30.769-13.331z"/></svg>