<svg xmlns="http://www.w3.org/2000/svg" xml:space="preserve" style="enable-background:new 0 0 150 150" viewBox="0 0 150 150"><path d="M73.4 32.7c.4-.2.9-.4 1.4-.3.4 0 .8-.1 1.1.1.9.2 1.7.7 2.3 1.3 2.7 2.7 5.4 5.4 8.1 8 .3.3.6.5.8.9-3 3.1-6.1 6.1-9.1 9.1l-3 3-3.9 3.9c-5.9 5.9-11.8 11.8-17.7 17.8-2.7 2.8-5.5 5.6-8.3 8.3-3 3-5.9 6-8.9 8.9V70.5c0-.2.2-.4.2-.7.2-.3.3-.6.5-.9.4-.6 1-1 1.4-1.5C49.4 56.2 60.6 45 71.7 33.8c.5-.4 1-.8 1.7-1.1" style="fill:#e53935"/><path d="m78 51.9 9.1-9.1c8.2 8.2 16.4 16.4 24.6 24.7.7.8 1.6 1.5 1.9 2.5.3.7.2 1.5.2 2.2v36.1c.2 2.4-2.1 4.6-4.4 4.4H96.6V76.5c-5.3-5.3-10.6-10.7-16-16L75 54.9z" style="fill:#1e88e5"/><path d="m45.1 84.8 8.3-8.3v36.1H39.9c-1.9-.2-3.5-1.8-3.8-3.7V93.7c3.1-2.9 6-5.9 9-8.9" style="fill:#fbc02d"/><path d="M53.5 95.3c14.4.1 28.8.1 43.1.2 0 5.7-.1 11.5-.1 17.2-14.4-.1-28.8-.1-43.2-.2.1-5.7.1-11.4.2-17.2" style="fill:#4caf50"/></svg>