<svg xmlns="http://www.w3.org/2000/svg" width="194.7" height="221.156" viewBox="0 0 51.514 58.514"><path d="M139.925 137.786h5.81v27.407h-5.81zm28.717 27.408h-19.381v-4.078l6.96-7.035c2.06-2.111 3.406-3.575 4.039-4.39.632-.816 1.087-1.571 1.365-2.267a5.774 5.774 0 0 0 .417-2.162c0-1.112-.306-1.94-.92-2.484-.613-.543-1.43-.816-2.455-.816a7.063 7.063 0 0 0-3.13.74c-1.011.493-2.067 1.195-3.167 2.105l-3.185-3.774c1.365-1.163 2.496-1.985 3.394-2.465.898-.48 1.878-.85 2.94-1.11 1.062-.259 2.25-.388 3.565-.388 1.732 0 3.262.316 4.59.948 1.327.632 2.357 1.517 3.09 2.655.733 1.138 1.1 2.44 1.1 3.906a9.565 9.565 0 0 1-.673 3.595c-.448 1.118-1.144 2.266-2.086 3.441-.941 1.176-2.601 2.852-4.978 5.026l-3.565 3.357v.265h12.08zm8.932-14.51h1.912c1.787 0 3.124-.353 4.012-1.06.887-.705 1.331-1.733 1.331-3.083 0-1.362-.372-2.368-1.115-3.019-.744-.649-1.91-.974-3.497-.974h-2.643zm13.123-4.35c0 2.95-.922 5.206-2.765 6.768-1.844 1.563-4.466 2.344-7.865 2.344h-2.493v9.748h-5.811v-27.408h8.754c3.325 0 5.852.716 7.584 2.147 1.73 1.43 2.596 3.564 2.596 6.401" style="fill:#231f20;fill-opacity:1;fill-rule:nonzero;stroke:none;stroke-width:.47991806" transform="translate(-139.183 -137.07)"/><path d="M150.266 190.042a5.542 5.542 0 1 0-11.084 0 5.542 5.542 0 0 0 11.084 0" style="fill:#ffc434;fill-opacity:1;fill-rule:nonzero;stroke:none;stroke-width:.47991806" transform="translate(-139.183 -137.07)"/><path d="M150.266 176.867a5.542 5.542 0 1 0-11.084 0 5.542 5.542 0 0 0 11.084 0" style="fill:#60ab60;fill-opacity:1;fill-rule:nonzero;stroke:none;stroke-width:.47991806" transform="translate(-139.183 -137.07)"/><path d="M163.44 190.042a5.542 5.542 0 1 0-11.083 0 5.542 5.542 0 0 0 11.084 0" style="fill:#e15647;fill-opacity:1;fill-rule:nonzero;stroke:none;stroke-width:.47991806" transform="translate(-139.183 -137.07)"/><path d="M163.44 176.867a5.542 5.542 0 1 0-11.083 0 5.542 5.542 0 0 0 11.084 0m13.174 13.175a5.542 5.542 0 1 0-11.084 0 5.542 5.542 0 0 0 11.084 0" style="fill:#ffc434;fill-opacity:1;fill-rule:nonzero;stroke:none;stroke-width:.47991806" transform="translate(-139.183 -137.07)"/><path d="M176.615 176.867a5.542 5.542 0 1 0-11.084 0 5.542 5.542 0 0 0 11.084 0m13.175 13.175a5.542 5.542 0 1 0-11.084 0 5.542 5.542 0 0 0 11.084 0" style="fill:#60ab60;fill-opacity:1;fill-rule:nonzero;stroke:none;stroke-width:.47991806" transform="translate(-139.183 -137.07)"/><path d="M189.79 176.867a5.542 5.542 0 1 0-11.084 0 5.542 5.542 0 0 0 11.084 0" style="fill:#e15647;fill-opacity:1;fill-rule:nonzero;stroke:none;stroke-width:.47991806" transform="translate(-139.183 -137.07)"/></svg>