<svg xmlns="http://www.w3.org/2000/svg" xml:space="preserve" width="210mm" height="297mm" viewBox="0 0 210 297"><path d="M104.229 236.792c.63-.078 1.662-.078 2.293 0 .63.078.114.142-1.147.142-1.261 0-1.777-.064-1.146-.142m-7.034-.339c.255-.101.56-.089.676.028.118.118-.09.201-.463.186-.41-.017-.494-.1-.213-.213m15.853.007a1.36 1.36 0 0 1 .882 0c.243.098.044.178-.44.178-.486 0-.684-.08-.442-.178m5.667-.712c.254-.102.559-.09.676.027.117.118-.091.201-.463.186-.411-.017-.495-.1-.213-.213m-69.476-19.074c-.44-.56-.427-.572.133-.133.34.266.617.544.617.617 0 .29-.29.104-.75-.484m114.168-1.852c.351-.388.718-.705.815-.705.097 0-.11.317-.462.705-.351.388-.718.706-.815.706-.097 0 .111-.318.462-.706m-116.972-.617-.856-.97.97.855c.907.8 1.132 1.085.856 1.085-.063 0-.5-.437-.97-.97m-6.703-6.703-.855-.97.97.855c.906.8 1.132 1.085.855 1.085-.063 0-.5-.436-.97-.97m130.907.131c0-.073.278-.35.617-.617.56-.439.572-.426.134.133-.461.588-.75.775-.75.484m2.117-2.469c0-.073.278-.351.617-.617.56-.44.572-.427.133.133-.46.588-.75.774-.75.484M99.73 197.53c-15.87-2.208-29.115-10.962-36.735-24.28-4.178-7.301-6.29-15.436-6.29-24.22 0-13.472 4.935-25.331 14.464-34.757 6.672-6.6 15.015-11.008 24.82-13.112 5.065-1.087 13.706-1.087 18.77 0 20.548 4.41 35.191 19.462 38.756 39.838.703 4.02.703 12.04 0 16.06-3.137 17.93-15.55 32.543-32.405 38.147-6.43 2.138-15.573 3.132-21.38 2.324m9.495-16.239c13.342-1.673 24.193-11.26 27.762-24.53.928-3.452.928-12.012 0-15.463-1.687-6.27-4.816-11.53-9.49-15.947-13-12.287-33.368-11.62-45.778 1.499-3.521 3.723-5.985 8.063-7.626 13.434-.86 2.812-.947 3.626-.947 8.745 0 5.12.088 5.933.947 8.745 2.162 7.076 6.02 12.753 11.588 17.05 5.223 4.032 12.414 6.58 19.173 6.792.782.025 2.748-.121 4.371-.325m83.313-22.06c.017-.412.1-.495.213-.214.102.255.09.56-.028.676-.117.118-.2-.09-.185-.463m-174.625-.706c.017-.411.1-.495.213-.213.102.254.09.559-.028.676-.117.117-.2-.091-.185-.463m175.019-3.499c.007-.582.086-.777.176-.434.089.343.083.82-.014 1.058-.096.24-.17-.042-.162-.624m-175.344-.176c0-.485.08-.684.178-.441.098.243.098.64 0 .882-.098.243-.178.044-.178-.441m0-11.642c0-.485.08-.683.178-.44.098.242.098.639 0 .881-.098.243-.178.044-.178-.44m175.344-.176c.007-.582.086-.778.176-.434.089.343.083.82-.014 1.058-.096.239-.17-.042-.162-.624m-175.019-3.557c.017-.411.1-.495.213-.213.102.254.09.559-.028.676-.117.117-.2-.091-.185-.463m174.625-.706c.017-.41.1-.494.213-.213.102.255.09.559-.028.676-.117.117-.2-.09-.185-.463m-19.475-45.567c-.44-.56-.427-.572.133-.133.587.46.774.75.484.75-.073 0-.351-.277-.617-.617M39.759 90.468c.455-.485.907-.882 1.004-.882.097 0-.196.397-.652.882-.455.485-.908.882-1.005.882-.097 0 .197-.397.653-.882m131.188.265c-.439-.56-.426-.572.133-.134.588.461.775.751.484.751-.073 0-.35-.278-.617-.617M46.46 83.765c.456-.485.908-.882 1.005-.882.097 0-.196.397-.652.882s-.908.882-1.005.882c-.097 0 .197-.397.652-.882m116.913-.617-.672-.794.793.672c.746.632.955.916.672.916-.067 0-.424-.358-.793-.794M48.93 81.692c0-.073.278-.351.617-.618.56-.438.572-.426.133.134-.46.587-.75.774-.75.484m69.784-19.51c.254-.103.559-.09.676.027.117.117-.091.2-.463.185-.411-.017-.495-.1-.213-.213m-21.52-.706c.255-.102.56-.09.676.028.118.117-.09.2-.463.185-.41-.017-.494-.1-.213-.213m15.853.007a1.36 1.36 0 0 1 .882 0c.243.098.044.178-.44.178-.486 0-.684-.08-.442-.178m-8.82-.374a11.132 11.132 0 0 1 2.294 0c.63.078.114.142-1.147.142-1.261 0-1.777-.064-1.146-.142" style="fill:#dddedd" transform="translate(.998 2.358)"/><path d="M94.44 236.157c-29.127-3.986-53.521-21.024-67.007-46.8-5.05-9.652-8.17-20.131-9.356-31.424-.687-6.547-.687-11.256 0-17.822 2.128-20.33 10.95-38.818 25.369-53.17C57.63 72.82 75.029 64.382 95.136 61.87c6.44-.805 18.416-.55 24.465.52 18.905 3.346 34.554 11.394 47.706 24.535 13.787 13.775 22.037 30.2 25.079 49.933.463 3.004.625 6.164.625 12.171 0 10.83-1.101 17.955-4.252 27.501-4.362 13.219-11.383 24.543-21.452 34.604-13.15 13.139-28.753 21.164-47.706 24.538-5.51.981-19.558 1.252-25.162.485m19.805-.19c19.744-2.021 37.616-10.388 51.939-24.315 14.633-14.228 22.963-30.833 26.017-51.863.564-3.882.564-17.638 0-21.52-2.493-17.162-8.55-31.397-18.746-44.057-3.566-4.428-10.895-11.532-15.354-14.883-26.777-20.122-62.274-23.317-92.06-8.285-9.085 4.584-16.05 9.726-23.355 17.238-12.373 12.726-20.384 28.372-23.393 45.69a87.685 87.685 0 0 0 7.345 52.999c6.672 13.875 17.92 26.687 30.936 35.234 11.007 7.229 25.4 12.374 38.453 13.746 4.153.437 14.027.446 18.218.017" style="fill:#fce1a1" transform="translate(.998 2.358)"/><path d="M96.027 235.951c-16.202-1.703-32.633-8.53-45.509-18.905-7.334-5.91-15.18-14.91-20.085-23.038-9.025-14.953-13.544-33.553-12.258-50.455 1.37-18.01 6.804-32.776 17.244-46.85 3.603-4.856 10.33-11.846 15.1-15.69 26.645-21.473 63.497-25.408 94.15-10.053 7.96 3.987 14.725 8.844 21.515 15.446 14.633 14.228 22.963 30.834 26.017 51.863.564 3.882.564 17.638 0 21.52-2.493 17.163-8.55 31.398-18.746 44.057-3.566 4.428-10.895 11.532-15.354 14.883-12.888 9.686-27.963 15.611-43.856 17.239-4.19.429-14.065.42-18.218-.017m22.754-.985c15.537-2.478 29.29-8.59 41.628-18.5 3.853-3.094 10.7-10.136 13.817-14.208 9.577-12.513 15.604-27.275 17.627-43.175.55-4.316.55-15.792 0-20.108-2.507-19.698-10.964-37.25-24.565-50.984-13.718-13.85-29.866-22.024-49.566-25.087-5.674-.882-18.985-.885-24.694-.006C73.891 65.847 57.34 74.14 43.985 87.47 17.1 114.305 10.701 154.967 28.03 188.86c8.708 17.031 23.801 31.43 41.161 39.268 9.23 4.167 18.36 6.55 29.305 7.651 3.6.363 16.046-.136 20.285-.812" style="fill:#fbcc5e" transform="translate(.998 2.358)"/><path d="M101.318 198.214c-11.808-.967-22.293-5.867-30.882-14.432-5.652-5.638-9.537-11.93-11.979-19.402-1.786-5.466-2.268-8.732-2.268-15.35 0-6.62.482-9.886 2.268-15.351 2.442-7.473 6.327-13.765 11.98-19.402 10.577-10.55 23.755-15.422 38.89-14.38 14.94 1.028 28.87 9.243 37.288 21.99 14.344 21.717 9.27 50.903-11.576 66.594-7.17 5.397-16.303 8.973-24.448 9.572a630.84 630.84 0 0 0-4.334.333c-.776.064-2.998-.013-4.939-.172m13.443-1.35c15.728-3.225 28.077-12.883 34.889-27.286 2.991-6.325 4.406-12.925 4.406-20.549 0-7.624-1.415-14.224-4.406-20.548-6.807-14.394-18.946-23.899-34.89-27.32-5.064-1.087-13.705-1.087-18.77 0-4.743 1.018-8.462 2.29-12.31 4.214-14.534 7.263-24.337 20.868-26.623 36.951-.451 3.174-.451 10.233 0 13.406 2.879 20.248 17.866 36.49 37.735 40.892 6.5 1.44 13.69 1.527 19.969.24m-13.62-15.588c-3.252-.418-7.857-1.91-10.873-3.524-7.937-4.244-13.447-11.05-16.174-19.978-.86-2.812-.947-3.625-.947-8.745 0-5.12.088-5.933.947-8.745 2.728-8.929 8.244-15.742 16.174-19.976 18.462-9.856 41.167.344 46.72 20.99.928 3.451.928 12.01 0 15.462-2.979 11.076-11.066 19.735-21.597 23.126-4.97 1.6-9.321 2.025-14.25 1.39m12.172-1.36c5.042-1.308 9.865-3.93 13.74-7.472 13.533-12.369 13.533-34.461 0-46.83-2.686-2.454-4.53-3.687-8.004-5.347-4.808-2.299-7.734-2.924-13.674-2.924-6.077 0-8.984.643-13.934 3.08-11.225 5.526-17.816 16.11-17.816 28.606 0 15.648 10.693 28.461 26.226 31.429 3.452.66 9.822.403 13.462-.541" style="fill:#9ea2a9" transform="translate(.998 2.358)"/><path d="M98.496 235.778c-21.807-2.193-39.803-10.509-54.511-25.19C17.1 183.754 10.701 143.093 28.03 109.2c11.313-22.127 32.36-38.73 56.552-44.61 7.75-1.884 11.638-2.317 20.793-2.317 8.82 0 12.805.418 19.932 2.09 22.244 5.215 41.57 19.027 53.833 38.476 6.472 10.263 11.091 23.392 12.713 36.136.55 4.316.55 15.792 0 20.108-2.023 15.9-8.05 30.662-17.627 43.175-3.116 4.072-9.964 11.114-13.817 14.208-12.339 9.91-26.091 16.022-41.628 18.5-4.239.676-16.684 1.175-20.285.812m12.524-17.8c13.599-1.243 25.425-5.757 36.107-13.784 22.053-16.571 32.027-44.806 25.406-71.922-6.255-25.618-27.265-45.741-53.223-50.978-6.584-1.328-13.003-1.761-18.785-1.268-17.047 1.455-31.336 7.835-43.08 19.236-6.47 6.28-10.3 11.532-14.17 19.428-2.721 5.552-4.078 9.404-5.416 15.373-2.714 12.109-2.036 25.006 1.955 37.191 1.356 4.141 5.351 12.271 7.869 16.014 5.792 8.613 13.914 16.282 22.752 21.485 12.056 7.097 26.91 10.473 40.585 9.224" style="fill:#fab412" transform="translate(.998 2.358)"/><path d="M99.202 217.954c-15.95-1.508-30.41-8.142-41.757-19.158-6.52-6.329-10.286-11.491-14.173-19.428-4.801-9.806-7.029-19.421-7.029-30.339 0-10.921 2.23-20.54 7.032-30.339 3.87-7.896 7.7-13.148 14.17-19.428 11.744-11.4 26.033-17.78 43.08-19.236 13.128-1.12 28.439 2.469 40.075 9.394 26.351 15.683 39.23 46.482 31.933 76.366-6.255 25.618-27.307 45.78-53.223 50.972-7.31 1.465-13.422 1.829-20.108 1.196m17.016-1.183c25.347-4.32 45.604-21.268 53.92-45.111 2.634-7.552 3.676-13.966 3.676-22.63 0-12.952-2.993-24.167-9.296-34.841-15.346-25.984-45.994-38.907-75.358-31.776-18.273 4.437-34.189 16.404-43.306 32.562-3.727 6.605-5.94 12.472-7.722 20.472-.936 4.203-.982 4.84-.982 13.582 0 8.743.046 9.379.982 13.582 2.944 13.218 8.383 23.803 16.997 33.08 11.03 11.881 25.105 19.071 41.956 21.434 4.406.618 14.53.43 19.133-.354m-12.865-18.421c.344-.09.82-.084 1.059.013s-.042.17-.624.163c-.582-.007-.778-.086-.435-.176m3.175 0c.344-.09.82-.084 1.059.013s-.042.17-.624.163c-.582-.007-.778-.086-.435-.176m-4.041-17.635c.255-.102.559-.09.676.027.117.118-.091.201-.463.186-.411-.017-.495-.1-.213-.213m5.292 0c.254-.102.558-.09.676.027.117.118-.091.201-.463.186-.411-.017-.495-.1-.213-.213m-23.615-7.785c-.44-.56-.427-.572.133-.133.34.266.617.544.617.617 0 .29-.29.104-.75-.484m-28.15-19.344c.017-.411.1-.495.213-.213.102.254.09.559-.028.676-.117.117-.2-.091-.185-.463m81.14-4.586c.016-.411.1-.495.212-.213.102.254.09.559-.028.676-.117.117-.2-.091-.185-.463m-81.14-4.586c.017-.411.1-.495.213-.213.102.254.09.558-.028.676-.117.117-.2-.091-.185-.463m27.842-18.978c0-.073.278-.35.617-.617.56-.439.572-.426.133.133-.46.588-.75.775-.75.484m18.63-8.221c.256-.102.56-.09.677.027.117.118-.091.201-.463.186-.411-.017-.495-.1-.213-.213m5.293 0c.254-.102.558-.09.676.027.117.118-.091.201-.463.186-.411-.017-.495-.1-.213-.213m-4.432-17.642c.34-.088.895-.088 1.234 0 .34.09.062.162-.617.162s-.957-.073-.617-.162m2.822 0c.34-.088.895-.088 1.235 0 .34.09.061.162-.618.162s-.957-.073-.617-.162" style="fill:#947224" transform="translate(.998 2.358)"/><path d="M97.085 217.125c-16.851-2.363-30.925-9.553-41.956-21.434-8.614-9.277-14.053-19.862-16.997-33.08-.936-4.203-.982-4.84-.982-13.582s.046-9.379.982-13.582c2.944-13.217 8.383-23.803 16.997-33.08 26.773-28.836 72.454-29.236 99.678-.872 10.201 10.629 16.254 23.03 18.483 37.865.687 4.578.687 14.76 0 19.339-2.229 14.835-8.282 27.235-18.483 37.864-10.357 10.79-23.396 17.619-38.589 20.208-4.604.785-14.727.972-19.133.354m12.927-18.892c11.39-1.128 21.458-5.749 29.535-13.555 4.47-4.32 7.391-8.303 10.106-13.777 3.596-7.251 5.107-13.722 5.107-21.872s-1.51-14.62-5.107-21.872c-7.767-15.662-22.375-25.65-39.997-27.35-9.63-.929-20.596 1.466-28.888 6.309-15.428 9.01-24.782 25.207-24.782 42.913 0 12.814 4.762 24.768 13.51 33.918 6.85 7.165 14.6 11.708 23.932 14.03 5.895 1.466 10.748 1.834 16.584 1.256m-9.005-17.655c-3.14-.433-8.269-2.156-11.068-3.719-10.125-5.653-16.314-16.21-16.314-27.83 0-15.007 10.02-27.49 24.964-31.102 3.35-.81 10.047-.8 13.627.02 10.355 2.37 18.595 9.285 22.537 18.911 1.936 4.729 2.19 6.141 2.19 12.171 0 6.03-.254 7.442-2.19 12.171-3.888 9.494-12.2 16.547-22.175 18.816-3.202.728-8.497.985-11.571.561" style="fill:#14213a" transform="translate(.998 2.358)"/></svg>