<svg xmlns="http://www.w3.org/2000/svg" xml:space="preserve" style="enable-background:new 0 0 32 32" viewBox="0 0 32 32"><path d="M5 0h22c2.8 0 5 2.2 5 5v22c0 2.8-2.2 5-5 5H5c-2.8 0-5-2.2-5-5V5c0-2.8 2.2-5 5-5" style="fill:#0082c9"/><path d="M3.8 3.2c-.5 0-.9.4-.9.9v1.8c0 .5.4.9.9.9h24c.5 0 .9-.4.9-.9V4.1c0-.5-.4-.9-.9-.9zm0 7.3c-.5 0-.9.4-.9.9v1.8c0 .5.4.9.9.9h16.6c.5 0 .9-.4.9-.9v-1.8c0-.5-.4-.9-.9-.9zm0 7.4c-.5 0-.9.4-.9.9v1.8c0 .5.4.9.9.9h22.1c.5 0 .9-.4.9-.9v-1.8c0-.5-.4-.9-.9-.9zm0 7.4c-.5 0-.9.4-.9.9V28c0 .5.4.9.9.9h11.1c.5 0 .9-.4.9-.9v-1.8c0-.5-.4-.9-.9-.9z" style="fill:#fff"/></svg>