<svg xmlns="http://www.w3.org/2000/svg" xmlns:xlink="http://www.w3.org/1999/xlink" id="screenshot-dcc0b0bc-a1d5-807a-8006-469d348a177c" width="1000" height="1143.43" fill="none" version="1.1" viewBox="0 0 1000 1143.43"><g id="shape-dcc0b0bc-a1d5-807a-8006-469d348a177c" data-testid="Group" rx="0" ry="0"><g id="shape-dcc0b0bc-a1d5-807a-8006-469aa659ad9f" data-testid="Mask" rx="0" ry="0"><g clip-path="url(#render-2-410d00d8-a97d-8018-8006-469a0b802398-clip)"><g mask="url(#render-2-410d00d8-a97d-8018-8006-469a0b802398-mask)"><defs><filter id="render-2-410d00d8-a97d-8018-8006-469a0b802398-filter"><feFlood flood-color="#fff" result="FloodResult"/><feComposite in="FloodResult" in2="SourceGraphic" operator="in" result="comp"/></filter><clipPath id="render-2-410d00d8-a97d-8018-8006-469a0b802398-clip" class="mask-clip-path"><polyline points="0 0 1000 0 1000 1143.43 0 1143.43"/></clipPath><mask id="render-2-410d00d8-a97d-8018-8006-469a0b802398-mask" width="1000" height="1143.43" x="0" y="0" class="mask-shape" data-old-height="1143.43" data-old-width="1000" data-old-x="0" data-old-y="0" maskUnits="userSpaceOnUse"><g filter="url(#render-2-410d00d8-a97d-8018-8006-469a0b802398-filter)"><g id="shape-410d00d8-a97d-8018-8006-469a0b802398" data-testid="svg-path"><g id="fills-410d00d8-a97d-8018-8006-469a0b802398" class="fills"><path d="M0.000,107.197C0.000,47.994,47.969,0.000,107.143,0.000L598.500,0.000C626.906,0.025,654.140,11.335,674.214,31.444L968.643,325.877C988.751,346.008,1000.032,373.313,1000.000,401.773L1000.000,1036.233C1000.000,1095.436,952.031,1143.430,892.857,1143.430L107.143,1143.430C47.969,1143.430,0.000,1095.436,0.000,1036.233Z" style="fill:#000"/></g></g></g></mask></defs><g id="shape-dcc0b0bc-a1d5-807a-8006-469a8ad4ede0" width="500" height="500" data-testid="svg" rx="0" ry="0" style="fill:#000"><g id="shape-dcc0b0bc-a1d5-807a-8006-469a8ad4ede1" data-testid="svg-ellipse"><defs><radialGradient id="render-5-grad1" cx=".5" cy=".5" r=".5" fx=".5" fy=".5"><stop offset="0" style="stop-color:red;stop-opacity:1"/><stop offset="1" style="stop-color:#ff6400;stop-opacity:1"/></radialGradient><radialGradient id="fill-color-gradient-render-5-0" cx=".736" cy=".781" r=".512" gradientTransform="matrix(0.886556, -0.462622, 0.462622, 0.886556, -0.277561, 0.429184)"><stop offset="0" stop-color="#da121e" stop-opacity="1"/><stop offset="1" stop-color="#ff6920" stop-opacity="1"/></radialGradient><pattern id="fill-0-render-5" width="1501.031" height="1126.413" x="-703.589" y="-336.793" patternUnits="userSpaceOnUse"><g><rect width="1501.031" height="1126.413" style="fill:url(#fill-color-gradient-render-5-0)"/></g></pattern></defs><g id="fills-dcc0b0bc-a1d5-807a-8006-469a8ad4ede1" class="fills"><ellipse cx="46.927" cy="226.413" fill="url(#fill-0-render-5)" rx="750.516" ry="563.207" transform="matrix(1.000000, 0.000000, 0.000000, 1.000000, 0.000000, 0.000000)"/></g></g><g id="shape-dcc0b0bc-a1d5-807a-8006-469a8ad4ede2" data-testid="svg-ellipse"><defs><radialGradient id="render-6-grad2" cx=".5" cy=".5" r=".5" fx=".5" fy=".5"><stop offset="0" style="stop-color:#0f0;stop-opacity:1"/><stop offset="1" style="stop-color:#0064ff;stop-opacity:1"/></radialGradient></defs><g id="fills-dcc0b0bc-a1d5-807a-8006-469a8ad4ede2" class="fills"><ellipse cx="1338.138" cy="527.399" fill="url(#render-6-grad2)" rx="938.145" ry="750.942" transform="matrix(1.000000, 0.000000, 0.000000, 1.000000, 0.000000, 0.000000)" style="fill:url(#render-6-grad2)"/></g></g><g id="shape-dcc0b0bc-a1d5-807a-8006-469a8ad4ede3" data-testid="svg-ellipse"><defs><radialGradient id="render-7-grad3" cx=".5" cy=".5" r=".5" fx=".5" fy=".5"><stop offset="0" style="stop-color:#f0f;stop-opacity:1"/><stop offset="1" style="stop-color:#6400ff;stop-opacity:1"/></radialGradient></defs><g id="fills-dcc0b0bc-a1d5-807a-8006-469a8ad4ede3" class="fills"><ellipse cx="148.753" cy="1229.325" fill="url(#render-7-grad3)" rx="844.33" ry="657.074" transform="matrix(1.000000, 0.000000, 0.000000, 1.000000, 0.000000, 0.000000)" style="fill:url(#render-7-grad3)"/></g></g></g></g></g></g><g id="shape-dcc0b0bc-a1d5-807a-8006-469c52f31a16" data-testid="svg-path"><g id="fills-dcc0b0bc-a1d5-807a-8006-469c52f31a16" class="fills"><path d="M702.132,533.275L632.286,533.275L632.286,313.879C632.286,289.746,612.518,270.000,588.357,270.000L412.643,270.000C388.482,270.000,368.714,289.746,368.714,313.879L368.714,533.275L298.868,533.275C259.771,533.275,240.004,580.665,267.679,608.309L469.311,809.715C486.443,826.828,514.118,826.828,531.250,809.715L732.882,608.309C760.557,580.665,741.229,533.275,702.132,533.275ZM193.000,972.068C193.000,996.201,212.768,1015.947,236.929,1015.947L764.071,1015.947C788.232,1015.947,808.000,996.201,808.000,972.068C808.000,947.934,788.232,928.189,764.071,928.189L236.929,928.189C212.768,928.189,193.000,947.934,193.000,972.068Z" style="fill:#fff;fill-opacity:1"/></g></g></g></svg>