<svg xmlns="http://www.w3.org/2000/svg" width="58" height="58" fill="none" viewBox="0 0 58 58"><path fill="#878FC6" d="M40.864 21.93a13.16 13.16 0 0 0-4.126-4.103c.457.89.86 1.862 1.197 2.909 1.055.338 2.033.74 2.928 1.193m-10.2-6.074v3.687a28.04 28.04 0 0 1 4.71.537c-.687-1.651-1.563-2.985-2.56-3.896a13.217 13.217 0 0 0-2.15-.328m10.199 19.981a19.66 19.66 0 0 1-2.927 1.19 19.442 19.442 0 0 1-1.197 2.912 13.148 13.148 0 0 0 4.124-4.102m1.768-4.36a5.926 5.926 0 0 1-.527-1.677h-2.97a27.853 27.853 0 0 1-.535 4.68c1.66-.682 3.002-1.554 3.919-2.548.036-.153.082-.3.113-.455m-.113-5.64c-.916-.996-2.257-1.868-3.92-2.553.301 1.477.485 3.047.536 4.682h2.97a5.825 5.825 0 0 1 .528-1.675c-.032-.154-.078-.303-.114-.454m-5.567 3.963h-6.286v6.25c1.976-.065 3.84-.334 5.511-.77.438-1.664.71-3.515.775-5.48m-6.287-1.833h6.286c-.065-1.965-.337-3.819-.775-5.482-1.672-.436-3.536-.706-5.512-.77zm0 13.944a13.01 13.01 0 0 0 2.15-.328c.998-.913 1.874-2.245 2.56-3.896a28.15 28.15 0 0 1-4.71.534zm-9.769-7.43a27.636 27.636 0 0 1-.538-4.681h-3.712c.05.73.162 1.44.328 2.131.917.997 2.26 1.867 3.921 2.55m7.93-18.625c-.735.05-1.451.162-2.149.328-.997.911-1.873 2.246-2.558 3.894 1.485-.3 3.063-.484 4.707-.535zm0 5.859c-1.975.064-3.838.334-5.51.77-.44 1.663-.709 3.517-.774 5.482h6.284zm-6.071-3.888a13.154 13.154 0 0 0-4.127 4.1 19.802 19.802 0 0 1 2.928-1.19 19.65 19.65 0 0 1 1.199-2.91m6.071 24.084v-3.69a28.097 28.097 0 0 1-4.707-.534c.685 1.652 1.56 2.985 2.558 3.896.698.166 1.414.277 2.15.328m-12.18-13.944h3.712c.05-1.636.235-3.206.537-4.682-1.663.682-3.005 1.556-3.922 2.553a13.01 13.01 0 0 0-.327 2.13m6.108 11.973a19.591 19.591 0 0 1-1.198-2.91 19.964 19.964 0 0 1-2.927-1.192 13.154 13.154 0 0 0 4.125 4.101m6.071-10.14H22.54c.065 1.965.336 3.816.775 5.48 1.67.436 3.534.705 5.51.77z"/><path fill="#878FC6" d="M25.807 10.168c.455.782.693 1.625.766 2.47a16.63 16.63 0 0 1 18.897 10.86 5.99 5.99 0 0 1 2.543-.58c.305 0 .599.044.892.089C46.383 14.862 38.76 8.94 29.745 8.94c-1.534 0-3.02.187-4.456.511.181.23.367.456.518.716M15.42 41.636a5.927 5.927 0 0 1 1.78-1.898 16.414 16.414 0 0 1-4.096-10.806c0-.015-.004-.031-.004-.048 0-.013.003-.025.003-.039.01-4.138 1.553-7.909 4.084-10.805a5.95 5.95 0 0 1-1.769-1.907c-.149-.257-.252-.526-.36-.793-3.318 3.558-5.362 8.308-5.362 13.544 0 5.238 2.046 9.989 5.366 13.545.106-.267.21-.537.358-.793m32.592-6.786c-.913 0-1.77-.22-2.544-.582a16.625 16.625 0 0 1-18.9 10.859 5.927 5.927 0 0 1-.758 2.476c-.15.26-.335.484-.516.711a20.08 20.08 0 0 0 4.45.511c9.015 0 16.639-5.92 19.163-14.064-.296.043-.59.088-.895.088"/><path fill="#525678" d="M52.032 28.883c0-2.21-1.799-4-4.02-4-2.222 0-4.026 1.79-4.026 4s1.804 3.997 4.026 3.997c2.221 0 4.02-1.787 4.02-3.997M18.6 9.689a3.983 3.983 0 0 0-1.472 5.462c1.11 1.912 3.572 2.567 5.494 1.464a3.988 3.988 0 0 0 1.473-5.463 4.032 4.032 0 0 0-5.494-1.463m.003 38.394a4.032 4.032 0 0 0 5.493-1.462 3.99 3.99 0 0 0-1.471-5.463c-1.927-1.107-4.385-.45-5.49 1.46a3.983 3.983 0 0 0 1.468 5.465"/></svg>