<svg xmlns="http://www.w3.org/2000/svg" xml:space="preserve" id="Layer_1" x="0" y="0" style="enable-background:new 0 0 1044.2 1072.9" version="1.1" viewBox="0 0 1044.2 1072.9"><style>.st0{fill:#e3e4e5}.st3{fill:#939292}.st6{fill:#aaabab}</style><path d="M1044.2 99.3h-80.3V82.6H118.7c-3.4 0-6.1.5-9.6 1.2h-.2l-4.2 1.5-.7.2-.5.3-.7.5-3.3 1.7-.7.2v.3l-1.5.7-1.2 1-.5.5-.7.5-.5.2v.3l-.5.5-.7.5-.5.5-.5.5-1.2 1.2-.3.5-.7.7-.5.2h.2l-.8.7-.2.2v.3l-.5.5v.3l-.5.5-.3.5H3.2v-5.7C15.7 40 62.9 0 118.7 0h925.5z" class="st0"/><linearGradient id="SVGID_1_" x1="-436.531" x2="-435.531" y1="1080" y2="1080" gradientTransform="rotate(74.148 33665.955 56152.916)scale(66.9099)" gradientUnits="userSpaceOnUse"><stop offset="0" style="stop-color:#e4e4e4"/><stop offset="1" style="stop-color:#a2a2a2"/></linearGradient><path d="m963.8 82.8 80.4-43.2v82.5l-80.1 43h-.3z" style="fill:url(#SVGID_1_)"/><linearGradient id="SVGID_00000047022206145113723510000016437312225066538639_" x1="-436.531" x2="-435.531" y1="1080" y2="1080" gradientTransform="rotate(111.493 10306.464 47524.76)scale(68.927)" gradientUnits="userSpaceOnUse"><stop offset="0" style="stop-color:#e4e4e4"/><stop offset="1" style="stop-color:#a2a2a2"/></linearGradient><path d="m22.1 51.3 73.5 39.3-.7.5-.5.2v.3l-.5.5-.7.5-.5.5-.5.5-1.2 1.2-.3.5-.7.7-.5.2h.2l-.8.8-.2.2v.3l-.5.5v.3l-.5.5-.7 1.2-.2.2-.7 1.2-.5.7v.2l-1.7 3v.2l-.2.7-.3.5-.2.5v.3l-1.5 4.7c0-.2-1.2 6.4-1.2 9.6V165L0 122.1v-.2c0-26.3 8.1-50.7 22.1-70.6" style="fill:url(#SVGID_00000047022206145113723510000016437312225066538639_)"/><path d="M160.7 165.1h722.8v82.6H160.7z" class="st3"/><path d="M0 973.9h80.3v16.5h845.1c3.4 0 6.1-.2 9.3-1.2h.3l4.4-1.5.5-.3.5-.2 1-.2 3-1.7.7-.5h.2l1.2-1 1.2-.7v-.2l.7-.5.7-.5.2-.3.7-.5.7-.7.2-.2v-.3l.5-.2 1.2-1.2v-.2l.5-.2.5-.7.5-.5.5-.7.3-.3.5-.7.5-.7h.2l.2-.2h84v5.7c-12.5 53.6-59.5 93.4-115.2 93.4H0v-82.6z" class="st0"/><linearGradient id="SVGID_00000112628465541256169330000007186168219163578302_" x1="-436.531" x2="-435.531" y1="1080" y2="1080" gradientTransform="rotate(-105.859 -41489.82 25576.433)scale(66.8979)" gradientUnits="userSpaceOnUse"><stop offset="0" style="stop-color:#e4e4e4"/><stop offset="1" style="stop-color:#a2a2a2"/></linearGradient><path d="m80.3 990.3-80.3 43v-82.5l79.8-43h.5z" style="fill:url(#SVGID_00000112628465541256169330000007186168219163578302_)"/><linearGradient id="SVGID_00000111187167366360424160000016725278928859456667_" x1="-436.531" x2="-435.531" y1="1080" y2="1080" gradientTransform="rotate(-68.508 -68474.74 14904.305)scale(68.9226)" gradientUnits="userSpaceOnUse"><stop offset="0" style="stop-color:#e4e4e4"/><stop offset="1" style="stop-color:#a2a2a2"/></linearGradient><path d="m1022 1021.5-73.5-39.3.7-.5.2-.3.7-.5.7-.7.2-.2v-.3l.5-.2 1.2-1.2v-.2l.5-.2.5-.7.5-.5.5-.7.3-.3.5-.7.5-.7h.2l.7-1.2 1-1.5.5-.7 1.5-3.2.2-.3.2-.5v-.3l.2-.5v-.3l.3-.2 1.5-4.7s1.2-6.6 1.2-9.8v-43l80.3 42.7v.2c.1 26.3-8 50.6-21.8 70.5" style="fill:url(#SVGID_00000111187167366360424160000016725278928859456667_)"/><path d="M80.3 330.2h308.8v82.6H80.3z" class="st6"/><linearGradient id="SVGID_00000124163711919934827600000015223392067256565944_" x1="-436.531" x2="-435.531" y1="1080" y2="1080" gradientTransform="rotate(-165.416 -150856.63 269491.425)scale(525.9239)" gradientUnits="userSpaceOnUse"><stop offset="0" style="stop-color:#aaabab"/><stop offset=".1" style="stop-color:#aaabab"/><stop offset="1" style="stop-color:#4e4e4e"/></linearGradient><path d="m233.1 412.7-152.8-82v-.5h155.6l153.3 82v.5z" style="fill:url(#SVGID_00000124163711919934827600000015223392067256565944_)"/><path d="M654.7 330.2h309.1v82.6H654.7z" class="st6"/><linearGradient id="SVGID_00000161603880371678629700000016987711509589370532_" x1="-436.531" x2="-435.531" y1="1080" y2="1080" gradientTransform="rotate(-14.583 -2332422.92 -615103.888)scale(525.933)" gradientUnits="userSpaceOnUse"><stop offset="0" style="stop-color:#aaabab"/><stop offset=".1" style="stop-color:#aaabab"/><stop offset="1" style="stop-color:#4e4e4e"/></linearGradient><path d="m810.7 412.7 153.1-82v-.5H808l-153.3 82v.5z" style="fill:url(#SVGID_00000161603880371678629700000016987711509589370532_)"/><path d="M654.7 660.4h309.1V743H654.7z" class="st6"/><linearGradient id="SVGID_00000043436674616112000510000008081731621243629721_" x1="-436.531" x2="-435.531" y1="1080" y2="1080" gradientTransform="rotate(14.583 2102556.838 1183618.434)scale(525.9256)" gradientUnits="userSpaceOnUse"><stop offset="0" style="stop-color:#aaabab"/><stop offset=".1" style="stop-color:#aaabab"/><stop offset="1" style="stop-color:#4e4e4e"/></linearGradient><path d="m810.7 660.4 153.1 81.8v.7H808l-153.3-82.3v-.2z" style="fill:url(#SVGID_00000043436674616112000510000008081731621243629721_)"/><path d="M80.3 660.4h308.8V743H80.3z" class="st6"/><linearGradient id="SVGID_00000140695339908375380790000008077092379392045452_" x1="-436.531" x2="-435.531" y1="1080" y2="1080" gradientTransform="rotate(165.416 -78244.42 299032.954)scale(525.9168)" gradientUnits="userSpaceOnUse"><stop offset="0" style="stop-color:#aaabab"/><stop offset=".1" style="stop-color:#aaabab"/><stop offset="1" style="stop-color:#4e4e4e"/></linearGradient><path d="M233.1 660.4 80.3 742.2v.7h155.6l153.3-82.3v-.2z" style="fill:url(#SVGID_00000140695339908375380790000008077092379392045452_)"/><linearGradient id="SVGID_00000027604031217678738830000007543440418495460025_" x1="-436.531" x2="-435.531" y1="1080" y2="1080" gradientTransform="translate(169881.86 -420029.5)scale(389.1637)" gradientUnits="userSpaceOnUse"><stop offset="0" style="stop-color:#fefefe"/><stop offset=".23" style="stop-color:#fefefe"/><stop offset="1" style="stop-color:#b0b0b0"/></linearGradient><path d="M389.2 412.7 0 204.4v-82.5l389.2 208.3z" style="fill:url(#SVGID_00000027604031217678738830000007543440418495460025_)"/><linearGradient id="SVGID_00000085942151349815611770000017634209741374218683_" x1="-436.531" x2="-435.531" y1="1080" y2="1080" gradientTransform="rotate(180 -84471.781 210413)scale(389.4062)" gradientUnits="userSpaceOnUse"><stop offset="0" style="stop-color:#fefefe"/><stop offset=".23" style="stop-color:#fefefe"/><stop offset="1" style="stop-color:#b0b0b0"/></linearGradient><path d="m654.7 412.7 389.5-208.3v-82.5L654.7 330.2z" style="fill:url(#SVGID_00000085942151349815611770000017634209741374218683_)"/><path d="M162.2 825.5H885v82.3H162.2z" class="st3"/><linearGradient id="SVGID_00000088101808087792084480000010495248900204035993_" x1="-436.531" x2="-435.531" y1="1080" y2="1080" gradientTransform="rotate(180 -84471.781 210682.203)scale(389.4062)" gradientUnits="userSpaceOnUse"><stop offset="0" style="stop-color:#fefefe"/><stop offset=".23" style="stop-color:#fefefe"/><stop offset="1" style="stop-color:#b0b0b0"/></linearGradient><path d="m654.7 660.4 389.5 208.1V951L654.7 742.9z" style="fill:url(#SVGID_00000088101808087792084480000010495248900204035993_)"/><linearGradient id="SVGID_00000016785220900253764290000013796067822628165562_" x1="-436.531" x2="-435.531" y1="1080" y2="1080" gradientTransform="translate(169881.86 -419491.063)scale(389.1637)" gradientUnits="userSpaceOnUse"><stop offset="0" style="stop-color:#fefefe"/><stop offset=".23" style="stop-color:#fefefe"/><stop offset="1" style="stop-color:#b0b0b0"/></linearGradient><path d="M389.2 660.4 0 868.5V951l389.2-208.1z" style="fill:url(#SVGID_00000016785220900253764290000013796067822628165562_)"/><path d="M1044.2 495.3H809l74.2-39.8V373L654.7 495.3v82.5h.3l228.5 122.1v-82.5l-74.2-39.6h234.9zM160.7 373v82.5l74.4 39.8H0v82.5h234.9l-74.2 39.6v82.5l228.5-122.1v-82.5z" style="fill:#d94f00"/></svg>