<svg xmlns="http://www.w3.org/2000/svg" xmlns:xlink="http://www.w3.org/1999/xlink" xml:space="preserve" width="256" height="256" viewBox="0 0 256 256"><g transform="translate(6.306 16.86)scale(.2824)"><defs><path id="a" d="M0 0h862v787H0z"/></defs><clipPath id="b"><use xlink:href="#a" width="100%" height="100%" style="overflow:visible"/></clipPath><g clip-path="url(#b)"><path d="M346.1 740.3c32.8 59.3 116.9 62.6 154 5.9l346.7-528.4c36.8-56 1.6-131.2-65-138.8L100.4.9C27.7-7.4-24 69.8 11.3 133.8Z" style="fill-rule:evenodd;clip-rule:evenodd;fill:#6851f6"/><linearGradient id="c" x1="536.602" x2="292.939" y1="1113.179" y2="64.084" gradientTransform="matrix(1 0 0 -1 0 788)" gradientUnits="userSpaceOnUse"><stop offset=".48" style="stop-color:#24ecc6;stop-opacity:0"/><stop offset=".994" style="stop-color:#24ecc6"/></linearGradient><path d="M346.3 740.3c32.8 59.3 116.9 62.6 154 5.9L847 217.8c36.8-56 1.6-131.2-65-138.8L100.6.8c-72.7-8.3-124.4 68.9-89 132.9Z" style="clip-rule:evenodd;fill:url(#c);fill-rule:evenodd"/><linearGradient id="d" x1="759.677" x2="219.425" y1="79.312" y2="1003.199" gradientTransform="matrix(1 0 0 -1 0 788)" gradientUnits="userSpaceOnUse"><stop offset=".066" style="stop-color:#abffef"/><stop offset=".45" style="stop-color:#cac9ff"/><stop offset="1" style="stop-color:#6d4aff"/></linearGradient><path d="M396.4 638.7 365.6 685c-12.5 18.7-40.4 17.6-51.2-2.1l31.7 57.5c5.7 10.2 12.8 18.8 21.1 25.7 39.3 33 102.2 27.1 133-19.8l346.7-528.4c36.8-56 1.6-131.2-65-138.8L100.4.9C27.7-7.5-24 69.8 11.3 133.8l2.7 4.9 580.1 67.1c37 4.3 56.5 46 36 77.1z" style="fill:url(#d)"/></g></g></svg>