<svg xmlns="http://www.w3.org/2000/svg" width="682.667" height="682.667" version="1.0" viewBox="0 0 512 512"><path d="M187.8 1c-24.5 4.1-42.6 21.4-49.5 47-2.8 10.2-2.5 38.7.5 49.7 9.5 35.2 27.8 66.5 52.5 90l7.6 7.2-8.7 2c-11 2.6-23.5 4.1-33.2 4.1h-7.5l-1.8-9.3c-4.1-21-14.4-45.4-25.7-60.6-13.9-18.7-31.9-29.1-50.6-29.1-15 0-28.4 6.5-35.9 17.4-9.5 13.8-10 32.5-1.2 49 11.6 21.9 44.9 41 85.2 48.9 11 2.1 11.4 2.3 11.9 5.1.8 3.7.7 13.1 0 17.7l-.6 3.5-44.2 1.3c-24.2.6-52.2 1.5-62.1 1.8l-18 .6-3.3 3.3c-3.6 3.5-4.1 6.8-1.7 11.3 2.8 5.5 2.7 5.5 59.7 3.7 28.8-.9 55.8-1.6 60-1.6h7.7l-.6 3.8c-.3 2-2 9.3-3.7 16.2l-3.1 12.5-7-.3c-8.4-.4-19.8 2.3-29 6.9-24.6 12.1-39.3 40.3-34.2 65.4 2.6 12.7 8.5 23.4 18.2 33.2l8.2 8.1.6 10.4c1.7 30.5 18.2 50 50.2 59.4 7.5 2.2 11.6 2.7 25.1 3.1 21.9.7 36.8-1.8 57-9.8 3.1-1.2 3.3-1.2 11 6 13.5 12.5 34.8 25.1 42.4 25.1 8.3 0 12.9-10 7.4-16.1-.9-1-6.1-4-11.7-6.8-9-4.4-26.8-17.1-26.7-18.9.1-.4 3.8-3 8.3-5.9 4.5-2.9 12-8.3 16.6-12 4.6-3.7 9.4-7.7 10.7-8.8 2.4-1.9 2.6-1.9 5.2-.2 6 3.9 20.2 10.6 28.3 13.5 18.5 6.5 46.4 11.2 67.1 11.2h12.1l-2.4 2.6c-4.4 4.7-17.3 13.8-25.7 18.2-6.4 3.4-8.7 5.1-9.9 7.7-1.9 4-1.2 7.7 2.2 11.1 3.7 3.7 8.8 3.2 18.2-1.7 15.8-8.3 29.4-19.9 39.9-33.9 6.2-8.3 6.7-8.8 11.8-9.9 7.4-1.7 25.8-10.9 34-17.1 23.9-18.2 38.6-43.6 40.3-69.7.7-10.2-.8-21.9-3.7-29.7l-1.9-4.8 6.8-10.2c3.7-5.5 8.4-13 10.4-16.6 5.3-9.7 10-24.3 10.1-31.8.1-5.8-.2-6.6-2.7-8.8-3.6-3-9.4-3.2-13-.4-1.9 1.5-2.9 3.8-4.2 9.7-2.3 10.4-6.4 20.1-12.8 30.1l-5.3 8.3-6.4-8.2c-3.5-4.4-14.3-15.7-23.9-24.9-17.3-16.6-17.5-16.9-14.6-17.5 27.8-6 46.6-21.2 51.1-41.2 3-13.7.8-27.1-6.8-41.6-4.5-8.6-18.3-22.2-26.9-26.7l-6.5-3.3 2.7-8.1c4.1-12.2 5.3-21.7 4.6-36.9-.4-10.1-1.1-15.3-3.1-22-9.6-32.5-33.2-53.5-65-57.7-14.7-2-31.1 1.9-43.9 10.4-8.2 5.5-19.7 18.1-24.2 26.7-3.8 7.2-3.8 7.3-5.4 5-10.5-15.9-27-33.9-40.1-43.7C241.9 6 211.2-2.9 187.8 1m35.3 23c27.4 9.1 49.3 28.2 69.4 60.5l4.8 7.6-4.3 11.2c-6.2 16.6-13.2 30.2-20.4 39.8-11.9 15.8-32.8 33.7-47.9 41l-4.6 2.2-5.8-4.9c-24-20.3-42.6-47.4-52.3-76.2-4.3-13-6-22.6-6-34.5.1-26.7 10.7-43.4 31.3-49.2 8.6-2.5 24.3-1.4 35.8 2.5m158.2 21.5c20.4 4.3 38.3 22.8 44.2 46 3.2 12.5 1.3 34.8-4 48.2-1.6 4-1.6 4-5.8 3.3-15.7-2.9-36.3-1.9-53.4 2.6-5.4 1.4-10.7 2.8-11.8 3-1.7.4-3.9-3.4-16.6-29.2l-14.6-29.7 5.8-11.6c9.4-19.2 20.6-29.2 36.2-32.6 8.1-1.8 11.8-1.8 20 0m-60.7 91.6c5.8 11.6 10.4 21.2 10.2 21.3-4.7 2.8-13.4 10.5-19.9 17.7-14.9 16.5-20.2 22-28.1 29l-7.7 6.8-7.2-2c-6.6-1.8-21.6-7.6-26.3-10.1-1.6-.9-.8-1.6 5.5-5.7 16.3-10.4 32.1-25.8 44.1-42.6 5.1-7.2 17.8-31.5 17.8-34.1 0-.8.2-1.4.5-1.4s5.2 9.5 11.1 21.1m-234-11.2c12.7 6 24.8 21.4 33.3 42.7 3.6 8.9 9.6 29.3 8.8 30-.1.2-4.3-.6-9.2-1.7-25.6-5.5-51-17.8-61.9-29.9-7.5-8.4-11.4-22-8.6-30.4 4.5-13.6 21.2-18.4 37.6-10.7m322.2 36.6c1 .9-10.7 14.2-17.7 20.2-7.1 6.1-15.8 12.3-17 12.3-.6 0-5.3-7.9-12-20.1l-4.1-7.6 5.7-1.6c6.4-1.8 15.7-3.5 21.8-4.1 4.5-.4 22.7.2 23.3.9m29.4 9.1c17.6 11.1 26.7 31.7 21.1 47.9-4.4 13-23.5 23.4-43.7 23.7l-8 .1-3.8-4.4c-2.1-2.4-7.3-9.3-11.5-15.3-7.4-10.4-7.6-11-5.7-12.3 17.3-12.1 30.4-24.6 38.5-36.7 5-7.4 5.8-7.6 13.1-3m-90.1 19.2 7.7 13.7-4.6 1.8c-10.7 4.2-34.5 8.7-46.2 8.7-3.1 0-2.9-.3 8.2-12.2 15.7-17 24.7-25.8 26.1-25.8.7 0 4.6 6.2 8.8 13.8m-126.3 20.6c5.3 3.3 20.6 10.9 26.6 13.1l4.9 1.9-2.4 1.5c-1.3.9-5.8 4.1-9.9 7.2l-7.5 5.6-30.5.7c-16.8.3-35.2.9-41 1.2l-10.6.7.1-11.2V221h6.3c18.3 0 43.8-5 60-11.9.1 0 2 1 4 2.3m152.1 20.8 7 10.1-5.5 2.3c-7.6 3.1-12.5 6.5-16.7 11.6-3.5 4.2-9.7 16.1-9.7 18.5 0 2.1-3.1 4.3-6.3 4.4-1.8 0-7.2 1-12 2.3l-8.9 2.2-3.5-5.5c-4.5-7.1-15.4-17.6-22.6-21.9-6.5-3.9-17-8.3-24.2-10.1-2.7-.7-5.6-1.5-6.4-1.7-.9-.3 1.8-2.7 6.6-5.9l8.1-5.4 9.4 1.1c19.8 2.2 44.4-.8 65-8 6.2-2.2 11.6-4 12-4.1.4 0 3.8 4.5 7.7 10.1m-162.5 35.5c-14.7 17.2-25.6 26.6-37.4 32.2-7.3 3.5-7.8 3.6-19.2 3.6-7 0-12.1-.4-12.8-1.1-.7-.7-.1-5 2.4-15 1.8-7.6 3.7-16.3 4.1-19.2l.7-5.2 5.6-.1c3.2-.1 14.5-.5 25.2-.9 10.7-.3 23.5-.7 28.4-.8l8.8-.2zm53.2-2.7c12 3.1 21.6 8.1 28.7 14.9 3.4 3.3 7 7.3 8 9 2 3.5 3.5 2.1-12 11.4-23.1 14-42.8 31.1-59.8 52.1-2.2 2.7-8.9 12.3-15 21.4-6 9.1-11.6 16.8-12.4 17-1.2.4-1.3-1.4-.7-11.4.9-14.5 3.4-29.9 8-48.1 6.9-27.2 15.1-46.5 26.4-61.9l5.5-7.7 7.8.7c4.2.3 11.2 1.5 15.5 2.6m158 22.8c14.3 14.1 28.7 29.2 31.9 33.5 5.5 7.4 5.7 7.9 4.4 10.4-2 3.7-14.8 14.4-21.6 18.1-9.5 5-9.1 5.3-12.3-7.5-8-31.7-26.3-54.4-49.2-61.4-3.8-1.2-6.8-2.7-6.8-3.4 0-.7 1.5-3.4 3.3-6.1 4.5-6.5 10.1-9.4 18.1-9.4l6.1.1zm-78.2 19.4c2.1 25.1 14.3 45.8 34.5 58.7 6.2 4 19.9 9.1 24.4 9.1 1.2 0 3.2.3 4.5.6 2.1.6 2.2 1 2.2 12.9 0 14.2-2.4 25.2-8.5 39.8-2.9 6.8-4.4 9.1-6.4 9.9-4.1 1.6-32.5 2.2-43.6.9-12.7-1.5-27.6-4.5-38.5-7.7-10-3-27-11-27-12.8 0-.7.9-2.1 2.1-3.2 3.6-3.3 15.4-18.5 21.2-27.4 10.1-15.7 16.7-31.1 19.8-46.5 1.4-7.1 1.7-23.4.6-32.6l-.8-6.7 5.8-1.5c9.4-2.5 9-2.8 9.7 6.5m30.5-5.2c9.5 4.5 16.9 12.6 23 25.3 4.5 9.1 9.1 22.7 9.1 26.6 0 2.1-6.2.7-14-3-16.1-7.9-28.9-29.1-29-48.2 0-3.2.3-3.7 2.3-3.7 1.2 0 5.1 1.4 8.6 3m-184 20.7c-7.3 27-10.5 50.9-9.3 70.4l.6 11.6-5.8 2.1c-12.3 4.5-18.5 5.6-31.9 5.6-9.4 0-14.9-.5-20-1.8-9-2.3-23.5-9.1-23.5-10.9 0-3 3.8-12.4 14.5-35.2 6.1-13.2 12.9-28.3 15-33.6l3.7-9.6 5.7 1.4c7.2 2 19.9 2.1 27.9.4 3.4-.8 10.4-3.5 15.5-6.1 5-2.6 9.5-4.7 9.9-4.8.3-.1-.7 4.6-2.3 10.5m119.6-5.6c1.6 11.5-2.2 30.4-9 44.5-1.9 3.8-6 11-9.3 16-6.3 9.5-19.8 26.4-21.1 26.4-1.6 0-5-9.7-5.7-16.2-1.2-12 3.9-30.2 12.8-45.3 5.7-9.8 26.3-30 31-30.4.3-.1.9 2.2 1.3 5m-196.5 0c0 2-8.8 22.4-17.8 41.4-4.9 10.5-9.7 21.1-10.7 23.7-1 2.7-2.1 4.8-2.5 4.8-1.9 0-10.1-13.9-11.5-19.5-1.9-7.4-1.9-11.6 0-18.8 3.7-14.2 17.1-27.1 32.5-31.3 5.7-1.6 10-1.7 10-.3m355.9 45c.3 24.7-16.3 50.3-42.1 65.2-2.7 1.6-4.8 2.4-4.8 2 0-.4 1-3.7 2.1-7.3 3.6-11.2 4.9-20.7 4.9-34.5v-13.2l7.6-2.8c8.1-3 19.2-9.8 26.4-16.2 5.4-4.9 5.8-4.4 5.9 6.8M246.4 370c-.7 4.1-1.3 9.9-1.4 12.8 0 10.5 4 24.7 9.7 33.5l1.8 2.9-4.5 4c-6.1 5.6-18.6 14.8-26.1 19.4-5.8 3.5-6.3 3.6-7.5 1.9-2.7-3.7-9.3-17.2-11.4-23.4l-2.1-6.3 2.3-1.6c8.1-5.7 15.2-14 24.7-29.2 5.6-8.9 15.2-22.3 15.6-21.8.1.2-.3 3.7-1.1 7.8m-136.3 56.9c12 4.3 26.9 6.4 39.2 5.7 10.9-.7 24.4-3.3 32.4-6.4l5.1-1.9 3.3 8.4c1.7 4.6 4.9 11.3 7.1 14.9 2.1 3.7 3.8 6.8 3.8 7 0 1.8-22.3 7.3-34 8.4-36 3.3-63.5-11.5-68.4-36.9-.7-3.8-1.8-3.9 11.5.8"/><path d="M301.8 494.9c-2.7 2.4-3.3 3.6-3.3 7.1 0 3.5.6 4.7 3.3 7.1 3.6 3.2 6.9 3.6 11.2 1.4 3.5-1.8 5-4.3 5-8.5s-1.5-6.7-5-8.5c-4.3-2.2-7.6-1.8-11.2 1.4"/></svg>