<svg xmlns="http://www.w3.org/2000/svg" xml:space="preserve" style="enable-background:new 0 0 128 128" viewBox="0 0 128 128"><path d="M48.6 1.9 50 7.7c-5.6 1.4-11 3.6-16 6.6l-3.1-5.1c5.5-3.3 11.5-5.8 17.7-7.3m30.8 0L78 7.7c5.6 1.4 11 3.6 16 6.6l3.1-5.1c-5.5-3.3-11.5-5.8-17.7-7.3m-70.2 29c-3.3 5.5-5.8 11.5-7.3 17.7L7.7 50c1.4-5.6 3.6-11 6.6-16zM6 64c0-2.9.2-5.8.7-8.7l-5.9-.9c-1 6.4-1 12.8 0 19.2l5.9-.9C6.2 69.8 6 66.9 6 64m91.1 54.8-3.1-5.1c-5 3-10.4 5.3-16.1 6.7l1.4 5.8c6.3-1.6 12.3-4.1 17.8-7.4M122 64c0 2.9-.2 5.8-.7 8.7l5.9.9c1-6.4 1-12.8 0-19.2l-5.9.9c.5 2.9.7 5.8.7 8.7m4.1 15.4-5.8-1.4c-1.4 5.7-3.6 11.1-6.6 16.1l5.1 3.1c3.3-5.6 5.8-11.6 7.3-17.8m-53.4 42c-5.8.9-11.6.9-17.4 0l-.9 5.9c6.4 1 12.8 1 19.2 0zm38-23c-3.5 4.7-7.6 8.8-12.3 12.3l3.6 4.8c5.2-3.8 9.7-8.4 13.6-13.5zM98.4 17.3c4.7 3.5 8.8 7.6 12.3 12.3l4.8-3.6c-3.8-5.2-8.4-9.7-13.5-13.5zM17.3 29.6c3.5-4.7 7.6-8.8 12.3-12.3L26 12.5c-5.2 3.8-9.7 8.4-13.5 13.5zm101.5 1.3-5.1 3.1c3 5 5.3 10.4 6.7 16.1l5.8-1.4c-1.6-6.3-4.1-12.3-7.4-17.8M55.3 6.7c5.8-.9 11.6-.9 17.4 0l.9-5.9c-6.4-1-12.8-1-19.2 0zM20.4 117.1 8 120l2.9-12.4-5.8-1.4-2.9 12.4c-.8 3.2 1.2 6.5 4.5 7.2.9.2 1.8.2 2.7 0l12.4-2.8zM6.3 100.9l5.8 1.4 2-8.6C11.2 88.8 9 83.5 7.6 78l-5.8 1.4c1.3 5.3 3.3 10.4 5.9 15.2zm28 13-8.6 2 1.4 5.8 6.3-1.5c4.8 2.6 9.9 4.6 15.2 5.9l1.4-5.8c-5.5-1.3-10.8-3.5-15.7-6.4M64 12c-28.7 0-52 23.3-52 52 0 9.8 2.8 19.4 8 27.6L15 113l21.3-5c24.3 15.3 56.4 8 71.7-16.3s8-56.4-16.3-71.7c-8.3-5.2-17.9-8-27.7-8" style="fill:#3a76f0"/></svg>