<svg xmlns="http://www.w3.org/2000/svg" width="250" height="250" viewBox="0 0 250 250"><defs><linearGradient id="a" x1="50%" x2="50%" y1="0%" y2="100%"><stop offset="0%" stop-color="#111D2E"/><stop offset="21.248%" stop-color="#051839"/><stop offset="40.695%" stop-color="#0A1B48"/><stop offset="58.11%" stop-color="#132E62"/><stop offset="73.76%" stop-color="#144B7E"/><stop offset="87.279%" stop-color="#136497"/><stop offset="100%" stop-color="#1387B8"/></linearGradient></defs><g fill="none" fill-rule="evenodd"><path fill="url(#a)" d="M4.984 160.955C20.444 212.468 68.266 250 124.866 250 193.974 250 250 194.034 250 125 250 55.965 193.974 0 124.866 0 58.549 0 4.286 51.533 0 116.695c8.098 13.584 11.258 21.985 4.985 44.26z"/><path fill="#F2F2F2" fill-rule="nonzero" d="M118.898 97.864c0 .207 0 .414.01.609L88.192 142.2c-4.976-.222-9.968.633-14.703 2.544a34.398 34.398 0 0 0-5.877 3.041L.164 120.575s-1.56 25.162 4.943 43.915l47.682 19.28c2.394 10.486 9.734 19.683 20.562 24.107 17.717 7.254 38.144-1.014 45.514-18.383 1.918-4.54 2.812-9.303 2.683-14.054l43.95-30.78c.355.01.722.021 1.077.021 26.3 0 47.678-21.012 47.678-46.817 0-25.806-21.377-46.8-47.678-46.8-26.29 0-47.677 20.994-47.677 46.8m-7.37 88.61c-5.704 13.42-21.442 19.788-35.121 14.202a26.472 26.472 0 0 1-13.824-12.924l15.52 6.303c10.09 4.118 21.663-.57 25.857-10.453 4.206-9.894-.566-21.256-10.649-25.374l-16.044-6.515c6.19-2.301 13.229-2.386 19.805.296 6.63 2.703 11.773 7.793 14.499 14.297 2.726 6.504 2.715 13.685-.043 20.168m55.047-57.42c-17.509 0-31.763-13.991-31.763-31.19 0-17.185 14.254-31.18 31.763-31.18 17.52 0 31.774 13.995 31.774 31.18 0 17.199-14.254 31.19-31.774 31.19m-23.801-31.237c0-12.938 10.688-23.432 23.855-23.432 13.177 0 23.866 10.494 23.866 23.432 0 12.939-10.689 23.423-23.866 23.423-13.167 0-23.855-10.484-23.855-23.423"/></g></svg>