<svg xmlns="http://www.w3.org/2000/svg" width="101" height="101" fill="none" viewBox="0 0 101 101"><path fill="#BC4094" d="M30.844 75.4c-4.536 0-8.77-2.4-10.986-6.3l-7.46-12.8a12.283 12.283 0 0 1 0-12.6l7.46-12.8c2.318-3.9 6.45-6.3 10.986-6.3h3.326L38 18H27.014c-4.536 0-8.77 2.4-10.987 6.3L4.74 43.7a12.283 12.283 0 0 0 0 12.6l11.288 19.4c2.319 3.9 6.451 6.3 10.987 6.3H38l-3.83-6.6z"/><path fill="#5D4695" d="m96.278 43.66-11.18-19.37C82.802 20.396 78.709 18 74.218 18h-22.46c-4.492 0-8.685 2.396-10.881 6.29l-.2.3-10.98 19.07C28.599 45.457 28.1 47.554 28 49.65v.1c0 2.297.5 4.593 1.697 6.59l10.98 19.07.2.3c2.296 3.894 6.389 6.29 10.88 6.29h22.461c4.491 0 8.684-2.396 10.88-6.29l11.18-19.37a12.533 12.533 0 0 0 0-12.68"/><path fill="#E8E0EC" d="M46.482 30a8.617 8.617 0 0 0-1.372 1.804l-.098.2-7.837 13.935A8.378 8.378 0 0 0 36 50.249v.1c0 1.605.392 3.309 1.175 4.812l7.837 13.934.098.2c.392.602.784 1.204 1.274 1.705L60 50.45z"/><path fill="#fff" d="M89 47c-.2-1.195-.499-2.39-1.097-3.385L79.824 29.58c-1.596-2.788-4.687-4.58-7.88-4.58H55.689c-1.696 0-3.292.498-4.688 1.294L64.963 46.9H89z"/><path fill="#BB9AC9" d="M51 73.606A8.916 8.916 0 0 0 55.775 75H71.99c3.282 0 6.267-1.692 7.858-4.58l8.058-14.035C88.503 55.29 88.8 54.195 89 53H64.927z"/></svg>