<svg xmlns="http://www.w3.org/2000/svg" width="126" height="108" viewBox="0 0 42 36"><g fill="none" fill-rule="evenodd"><path fill="#CA2317" d="m28.338 12.6 9.382-2.88-5.557 3.532z"/><path fill="#E84F83" d="m34.053 19.62-1.89-6.368L37.72 9.72l-1.665 5.715z"/><path fill="#CA2317" d="M40.465 7.988 39.43 9.72l-3.375 5.715L37.72 9.72z"/><path fill="#E54011" d="m40.803 9.113-2.61 2.677 1.237-2.07zM28.9 10.823l7.672-.766L31.24 11.7z"/><path fill="#CA2317" d="m29.193 15.165 2.97-1.912 1.89 6.367-.99 2.025z"/><path fill="#B7DFF2" d="M24.76 22.725 23.342 5.4l9.72 16.245z"/><path fill="#E54011" d="m20.733 27.158 4.027-4.433 8.302-1.08z"/><path fill="#FFCE33" d="m1.158 35.865 19.575-8.708 4.027-4.432-6.39-.652z"/><path fill="#D6B12D" d="m1.9 28.755 10.058-1.53 3.127-2.52-1.53-.675z"/><path fill="#FFDE85" d="m5.523 20.543 9.562 4.162 3.285-2.632z"/><path fill="#009EC6" d="m22.623 11.678-1.216.202-3.037 10.193 3.285-2.07z"/><path fill="#5EAFCE" d="m24.4 18.248-2.745 1.755L23.343 5.4z"/><path fill="#045972" d="m14.028 13.05 8.594-1.373.383-3.397z"/><path fill="#5A8591" d="m13.105 5.085 7.47 4.5 2.43-1.305.068-.472z"/><path fill="#009EC6" d="m14.568.18 6.795 7.155 1.71.473.27-2.408z"/><path fill="#F39804" d="m18.37 22.073 6.03-3.826.36 4.478z"/></g></svg>