<svg xmlns="http://www.w3.org/2000/svg" xml:space="preserve" width="512.02" height="512" fill-rule="evenodd" stroke-linejoin="round" stroke-miterlimit="2" clip-rule="evenodd" viewBox="0 0 512.02 512"><path fill="#101010" d="m396.41 392.37-16.726-62.424 9.663-2.589 21.25 79.301-262.61-72.005 191.64-192.851 21.239 79.262-9.663 2.59-16.737-62.462-167.273 168.35z"/><path fill="url(#a)" d="M212.52 110h-12.125l-10.392-18-10.392 18h-12.125l22.517-39z" transform="matrix(-.86308 -3.22105 3.22106 -.86307 -73.064 1047.45)"/><path fill="url(#b)" d="M212.52 110h-12.125l-10.392-18-10.392 18h-12.125l22.517-39z" transform="matrix(3.22106 .86307 -.86308 3.22105 -173.584 -392.67)"/><path fill="url(#c)" d="M212.52 110h-12.125l-10.392-18-10.392 18h-12.125l22.517-39z" transform="scale(-3.33471 -3.3347)rotate(-45 -253.67 375.493)"/><path fill="url(#d)" d="m139.62 117 9.378 25h-18.756z" transform="matrix(-3.22106 -.86307 .86308 -3.22105 590.368 988.373)"/><path fill="url(#e)" d="m139.62 117 9.378 25h-18.756z" transform="scale(-3.33471 3.3347)rotate(45 131.496 -142.844)"/><path fill="url(#f)" d="m139.62 117 9.378 25h-18.756z" transform="matrix(-.86308 -3.22105 -3.22106 .86307 992.448 595.022)"/><g fill="#101010"><circle cx="1496" cy="1004" r="7" transform="matrix(3.221 -.86307 .86307 3.221 -5329.9 -1720.4)"/><circle cx="1496" cy="1004" r="7" transform="matrix(3.221 -.86307 .86307 3.221 -5299.8 -1614.1)"/><circle cx="1496" cy="1004" r="7" transform="matrix(3.221 -.86307 .86307 3.221 -5281.7 -1543.3)"/><circle cx="1496" cy="1004" r="7" transform="matrix(3.221 -.86307 .86307 3.221 -5526.9 -1610.7)"/><circle cx="1496" cy="1004" r="7" transform="matrix(3.221 -.86307 .86307 3.221 -5348 -1791.3)"/><path d="M365.12 200.504s-7.067-2.027-9.232-5.34c-1.703-2.619-4.812-12.419-5.41-14.259-2.455-7.489 5.311-14.581 5.311-14.581l-29.489 8.478s10.022-3.054 14.258 8.761c.66 1.82 1.884 9.996 2.446 15.053.651 3.592-3.934 8.51-3.934 8.51zm34.02 187.09L387.055 342.5m20.509 34.016s-5.491-.392-6.938-5.019c-.862-3.218-1.18-4.272-2.102-7.846-.612-1.897-1.257-3.917-1.561-5.826-1.933-8.886 3.094-12.287 3.094-12.287l-22.846 5.442s6.747.573 9.999 9.099c.69 1.805 1.41 4.751 1.796 6.705.815 3.17.877 3.402 1.744 6.508 1.468 5.092-1.703 7.43-1.703 7.43zm-242.16-52.171 161.432-162.452"/><path d="M182.499 327.588s-4.472-3.804 3.709-14.89c4.61-6.246 11.161-12.973 18.265-20.604 12.973-13.943 28.94-29.852 44.813-45.858 13.4-13.508 26.797-27.027 38.984-38.748 10.158-9.763 19.333-18.423 26.868-24.961 1.485-1.286 3.059-2.242 4.282-3.476 7.294-7.308 15.414-4.315 15.414-4.315l-21.44-20.493s1.622 9.147-3.622 15.213c-1.132 1.318-2.176 2.83-3.436 4.313-6.496 7.58-15.106 16.807-24.796 27.025-11.658 12.28-25.07 25.745-38.51 39.23-15.884 15.965-31.702 32.045-45.566 45.11-7.579 7.147-14.329 13.65-20.483 18.383-8.99 6.904-18.828 5.103-18.828 5.103zm-14.183 7.896 221.03 59.971"/><path d="M171.853 349.973s2.603-4.459 16.779-2.188c7.65 1.24 16.793 3.278 26.93 5.68 18.539 4.381 40.278 10.397 62.016 16.281 18.382 4.958 36.393 10.204 52.628 15.006 13.501 4.004 37.592 10.296 39.275 10.779 10.995 3.156 10.318 7.971 10.318 7.971l5.487-19.462s-3.922 4.818-12.994 1.884c-1.662-.536-25.589-7.244-39.267-10.62-16.415-4.057-34.777-9.067-53.135-14.064-21.75-5.927-43.532-11.72-61.738-17.308-9.968-3.057-19.05-5.517-26.12-8.712-14.217-6.416-10.296-14.844-10.296-14.844z"/></g><defs><linearGradient id="a" x2="1" gradientTransform="rotate(105 71.284 115.683)scale(160.726)" gradientUnits="userSpaceOnUse"><stop offset="0" stop-color="#ff8f00"/><stop offset="1" stop-color="#fe00ff"/></linearGradient><linearGradient id="b" x2="1" gradientTransform="rotate(-15 797.522 -320.327)scale(160.726)" gradientUnits="userSpaceOnUse"><stop offset="0" stop-color="#ff8f00"/><stop offset="1" stop-color="#fe00ff"/></linearGradient><linearGradient id="c" x2="1" gradientTransform="rotate(-135 173.765 54.326)scale(160.73)" gradientUnits="userSpaceOnUse"><stop offset="0" stop-color="#ff8f00"/><stop offset="1" stop-color="#fe00ff"/></linearGradient><linearGradient id="d" x2="1" gradientTransform="rotate(165 100.933 86.82)scale(160.726)" gradientUnits="userSpaceOnUse"><stop offset="0" stop-color="#ff8f00"/><stop offset="1" stop-color="#fe00ff"/></linearGradient><linearGradient id="e" x2="1" gradientTransform="scale(-160.73 160.73)rotate(45 -1.58 -1.166)" gradientUnits="userSpaceOnUse"><stop offset="0" stop-color="#ff8f00"/><stop offset="1" stop-color="#fe00ff"/></linearGradient><linearGradient id="f" x2="1" gradientTransform="scale(-160.726 160.726)rotate(-75 .592 1.434)" gradientUnits="userSpaceOnUse"><stop offset="0" stop-color="#ff8f00"/><stop offset="1" stop-color="#fe00ff"/></linearGradient></defs></svg>