<svg xmlns="http://www.w3.org/2000/svg" xml:space="preserve" width="512" height="512" viewBox="0 0 512 512"><path fill="#213040" d="m366.358 143.646-37.493 41.708c22.181 19.953 36.132 48.874 36.132 81.057s-13.952 61.104-36.133 81.057l37.493 41.708c33.594-30.219 54.725-74.022 54.725-122.765 0-48.744-21.13-92.546-54.724-122.765M145.64 389.175l37.494-41.707c-22.181-19.953-36.133-48.874-36.133-81.058s13.951-61.104 36.133-81.058l-37.493-41.707c-33.594 30.219-54.725 74.021-54.725 122.765 0 48.742 21.131 92.546 54.724 122.765"/><path fill="#A9D1F3" d="M291.247 122.458 256 164.833l-35.247-42.375zm0 245.529L256 410.362l-35.248-42.375z"/><circle cx="256" cy="266.41" r="52.333" fill="#A9D1F3"/></svg>